<?xml version="1.0" standalone="no"?>
<!DOCTYPE svg PUBLIC "-//W3C//DTD SVG 20010904//EN"
 "http://www.w3.org/TR/2001/REC-SVG-20010904/DTD/svg10.dtd">
<svg version="1.0" xmlns="http://www.w3.org/2000/svg"
 width="1815.000000pt" height="990.000000pt" viewBox="0 0 1815.000000 990.000000"
 preserveAspectRatio="xMidYMid meet">
<metadata>
Created by potrace 1.16, written by Peter Selinger 2001-2019
</metadata>
<g transform="translate(0.000000,990.000000) scale(0.100000,-0.100000)"
fill="#000000" stroke="none">
<path d="M0 7016 c0 -2541 2 -2885 15 -2896 8 -7 13 -16 10 -20 -3 -5 5 -17
18 -27 22 -17 23 -19 6 -37 -17 -18 -18 -17 -12 3 3 12 1 21 -4 21 -16 0 -33
-23 -33 -46 0 -25 16 -41 22 -22 3 9 6 9 12 0 4 -7 2 -12 -3 -12 -6 0 -11 -16
-11 -35 0 -20 -5 -35 -12 -35 -6 0 -3 -9 7 -20 17 -19 17 -21 2 -38 -20 -22
-22 -48 -4 -55 10 -4 10 -6 0 -6 -14 -1 -18 -71 -5 -71 5 0 9 -6 9 -12 0 -7 4
-22 9 -33 7 -18 6 -18 -9 -7 -15 13 -16 -76 -17 -1267 l0 -1281 2297 1 c2233
0 4895 -8 5079 -16 50 -2 97 -6 105 -9 8 -2 23 -4 34 -4 11 1 38 1 60 0 30 -2
36 -5 27 -14 -19 -19 -14 -30 10 -22 21 6 21 5 9 -10 -12 -14 -12 -19 -1 -29
9 -9 11 -9 6 0 -3 6 -2 15 4 18 6 4 15 -7 21 -24 13 -36 17 -37 36 -14 8 10
12 12 8 5 -11 -21 5 -35 23 -20 12 10 14 10 8 0 -4 -7 -2 -12 7 -12 8 0 27
-16 41 -35 15 -20 32 -32 38 -29 6 4 8 3 5 -3 -3 -5 3 -17 14 -27 20 -17 21
-16 15 1 -3 12 3 24 20 36 31 23 40 17 15 -10 -23 -24 -11 -53 22 -53 18 0 19
2 7 11 -11 7 -6 8 19 3 28 -5 33 -4 28 9 -4 11 -2 14 8 10 8 -3 12 -9 9 -14
-3 -5 4 -9 15 -9 12 0 21 5 21 12 0 6 3 9 6 6 3 -4 1 -16 -6 -27 -9 -18 -7
-22 15 -31 15 -6 31 -7 37 -4 7 4 8 2 4 -4 -4 -7 -1 -12 9 -12 11 0 15 -5 11
-15 -4 -12 -2 -13 14 -3 10 7 16 17 14 23 -3 5 2 1 10 -9 14 -18 21 -15 17 6
0 4 15 0 34 -10 20 -9 33 -23 30 -30 -3 -9 0 -10 15 -2 24 13 43 13 35 0 -3
-6 -1 -10 4 -10 6 0 11 7 11 15 0 8 7 15 16 15 8 0 12 5 9 10 -3 6 -1 10 5 10
6 0 10 -6 8 -13 -1 -6 2 -23 7 -37 l9 -25 6 25 c7 28 40 41 40 16 0 -9 8 -16
20 -16 14 0 18 -5 14 -17 -4 -14 -3 -14 7 2 12 19 12 19 20 0 7 -19 8 -19 15
3 7 25 19 28 39 8 10 -10 11 -16 2 -25 -8 -8 -8 -11 0 -11 16 0 23 26 10 39
-6 6 -7 14 -3 18 4 5 16 -3 27 -16 17 -21 19 -22 19 -4 0 16 35 43 55 43 10 0
4 -29 -7 -36 -8 -5 -9 -2 -4 11 5 14 4 16 -8 6 -7 -6 -16 -24 -18 -40 l-4 -29
27 28 c26 25 76 49 64 30 -3 -4 2 -11 11 -14 8 -3 12 -11 9 -16 -5 -8 -11 -7
-21 0 -7 7 -19 10 -26 7 -9 -4 -7 -6 4 -6 9 -1 18 -8 20 -17 3 -13 6 -13 24 3
30 27 65 45 72 38 4 -3 0 -10 -7 -14 -17 -11 2 -23 23 -15 13 5 13 10 4 27
-10 20 -10 21 5 8 12 -9 17 -10 17 -2 0 7 5 9 11 5 8 -4 8 -9 0 -17 -15 -15
-14 -30 1 -21 6 4 17 -1 24 -10 7 -10 18 -15 25 -11 8 6 7 10 -5 17 -21 12
-21 29 1 21 11 -4 14 -3 9 5 -4 7 -13 12 -21 12 -24 0 -24 15 0 16 17 1 28 -8
41 -32 15 -28 20 -31 27 -18 6 11 5 19 -4 25 -11 6 -11 11 -1 21 9 9 12 9 12
-4 0 -9 6 -19 13 -22 10 -5 10 -7 0 -12 -20 -9 -15 -30 6 -30 11 0 19 4 18 9
-1 5 8 11 21 13 14 3 22 -1 22 -11 0 -8 4 -15 9 -15 5 0 7 8 4 19 -3 10 0 22
6 25 6 4 11 1 11 -7 0 -20 31 -31 44 -16 8 9 7 10 -6 6 -29 -10 -21 18 8 32
22 10 26 9 21 -3 -4 -9 1 -28 9 -43 l16 -28 -6 35 c-5 32 -5 34 9 16 8 -11 18
-17 21 -13 4 4 2 12 -4 20 -8 10 -6 13 9 14 15 1 19 -2 15 -14 -5 -12 -3 -13
6 -6 18 13 78 15 78 2 0 -6 10 -9 22 -7 16 2 25 12 29 33 4 17 7 22 8 10 1
-14 4 -16 12 -8 6 6 18 9 26 6 11 -4 12 -8 3 -13 -7 -4 -9 -13 -6 -19 12 -19
34 -12 40 14 4 14 11 25 17 25 6 0 6 -6 0 -18 -6 -12 -4 -21 6 -31 12 -11 14
-10 11 4 -2 11 6 21 21 26 20 8 23 7 18 -10 -3 -14 2 -21 17 -25 30 -8 36 -7
36 5 0 5 -4 8 -9 4 -5 -3 -12 -1 -15 4 -10 16 14 24 29 11 12 -10 15 -9 15 3
0 9 -8 18 -17 20 -10 2 -4 4 14 3 20 -1 28 -5 22 -11 -14 -14 -11 -25 6 -25 8
0 23 9 32 20 16 18 18 18 34 4 10 -9 29 -17 42 -18 14 0 23 -4 20 -8 -2 -5 2
-9 9 -10 7 0 18 -2 23 -2 6 -1 15 -5 22 -9 8 -5 11 -1 8 14 -3 12 0 29 6 38 8
13 9 11 4 -6 -7 -26 -6 -27 29 -13 18 6 26 6 26 -1 0 -6 7 -9 15 -5 8 3 21 -1
29 -9 25 -26 28 -16 5 16 -21 31 -21 31 -1 18 19 -12 23 -11 36 6 8 11 18 17
22 12 4 -4 2 -7 -4 -7 -7 0 -12 -7 -12 -15 0 -19 15 -19 45 1 l24 16 -9 -31
c-5 -19 -5 -29 1 -26 5 4 9 10 9 15 0 15 33 50 47 50 16 0 17 -12 2 -27 -8 -8
-7 -13 2 -18 8 -5 10 -4 5 3 -5 8 0 12 13 12 11 0 23 5 26 10 3 6 11 10 17 10
7 0 2 -9 -10 -20 -23 -22 -29 -40 -12 -40 6 0 10 7 10 16 0 10 5 14 16 10 8
-3 12 -2 9 4 -3 6 -2 10 4 10 5 0 12 -6 15 -12 5 -10 7 -10 12 0 6 13 26 17
22 5 -2 -5 4 -18 12 -30 14 -19 17 -20 35 -6 20 14 20 15 0 11 -14 -2 -21 3
-23 20 -2 12 2 22 8 22 7 0 10 -7 6 -15 -3 -8 0 -15 7 -15 7 0 22 -3 33 -6 15
-4 28 2 43 17 14 15 21 18 21 9 0 -9 5 -7 14 6 8 10 17 16 20 13 4 -3 -6 -18
-20 -32 -15 -15 -22 -27 -16 -27 6 0 17 6 24 14 12 11 18 11 37 -6 13 -10 26
-16 30 -13 3 3 -1 10 -9 15 -18 11 -21 50 -3 43 7 -3 13 -9 13 -14 0 -5 7 -9
15 -9 8 0 15 -4 15 -10 0 -5 11 -10 25 -10 14 0 25 5 25 11 0 5 4 8 9 4 5 -3
12 -1 15 4 8 13 69 7 74 -7 2 -7 11 -12 19 -12 9 0 13 6 10 14 -3 8 -1 17 6
20 9 5 9 7 -1 12 -6 3 -10 10 -6 15 3 5 12 2 20 -6 9 -8 12 -19 9 -25 -3 -5
-1 -18 4 -27 7 -12 10 -13 11 -4 0 7 6 11 15 7 8 -3 15 -1 15 3 0 5 -6 11 -12
14 -7 2 -10 8 -6 12 15 15 40 -4 33 -26 -7 -20 -6 -20 19 -4 17 11 26 13 26 6
0 -7 5 -9 11 -6 5 4 8 12 6 18 -4 13 33 50 42 42 3 -4 -1 -10 -8 -14 -10 -7
-11 -13 -2 -30 14 -25 33 -28 25 -3 -5 16 -4 16 9 -1 11 -14 17 -15 23 -6 4 7
2 15 -4 17 -7 2 -12 9 -12 15 0 8 4 7 12 -1 7 -7 27 -12 45 -12 18 0 33 -4 33
-10 0 -5 -3 -9 -7 -8 -14 2 -43 -14 -43 -24 0 -6 6 -5 15 2 8 7 15 9 15 5 0
-4 6 -2 14 4 7 6 20 10 27 8 8 -2 11 -2 7 0 -5 3 -8 11 -8 19 0 19 29 18 36
-1 4 -8 10 -15 15 -15 4 0 5 7 2 17 -4 10 -2 14 4 10 6 -4 18 0 27 8 8 8 17
11 21 6 3 -5 -3 -12 -12 -15 -17 -6 -27 -56 -10 -56 4 0 7 9 7 20 0 23 10 26
28 8 9 -9 15 -9 25 1 9 11 9 12 0 7 -9 -5 -11 -2 -7 9 6 14 8 14 24 0 22 -20
74 -21 66 0 -7 20 4 19 20 -2 12 -16 15 -16 24 -3 8 12 11 13 19 1 7 -11 13
-10 33 3 20 13 31 14 52 7 26 -11 36 -40 14 -42 -7 0 -3 -5 10 -11 17 -9 26
-8 35 1 10 11 7 12 -13 6 -17 -4 -21 -3 -11 3 10 7 10 14 2 29 -10 20 -6 33
11 33 5 0 6 -10 3 -21 -5 -16 -3 -20 6 -17 8 3 13 13 13 22 -1 12 1 14 10 7 9
-7 16 -7 25 2 10 9 11 8 5 -8 -4 -11 -4 -17 1 -13 4 4 14 3 21 -3 20 -16 54
-2 46 19 -5 15 -3 15 22 -2 23 -15 33 -16 53 -7 21 10 28 9 38 -6 7 -10 11
-21 9 -25 -12 -20 9 -28 22 -9 12 16 19 18 39 11 15 -6 27 -6 30 0 4 6 1 10
-4 10 -6 0 -11 5 -11 10 0 18 15 10 32 -17 10 -16 18 -22 18 -15 0 6 8 12 19
12 10 0 26 10 35 22 l17 23 -7 -24 c-4 -16 -3 -21 5 -17 6 4 11 1 11 -6 1 -8
6 -6 15 6 9 11 18 15 27 10 19 -12 48 -15 48 -5 0 11 38 21 42 11 2 -4 13 -11
26 -14 16 -6 22 -3 22 8 0 24 27 19 33 -6 l6 -23 21 23 c12 12 19 26 16 30 -2
4 3 8 12 9 9 1 28 4 42 8 l25 6 -24 -14 c-17 -10 -20 -16 -11 -22 6 -4 16 -3
22 3 6 6 17 8 24 5 8 -3 14 -1 14 5 0 15 27 22 51 14 l20 -8 -20 -18 c-16 -15
-24 -16 -35 -7 -10 8 -16 9 -21 1 -11 -17 38 -30 56 -14 8 8 21 14 28 14 8 0
11 6 7 15 -3 8 -1 15 4 15 6 0 10 -4 10 -10 0 -5 6 -10 14 -10 7 0 19 -7 26
-15 7 -8 18 -15 24 -14 7 0 6 2 -1 6 -22 8 -14 25 8 18 13 -5 25 -2 31 6 8 11
9 10 5 -3 -3 -9 0 -23 6 -32 10 -14 12 -13 13 8 1 14 14 37 29 52 24 24 27 25
21 6 -5 -14 -1 -24 11 -31 15 -9 15 -12 4 -20 -7 -5 -11 -15 -9 -22 3 -8 10 0
19 19 14 33 34 42 42 20 2 -8 8 -9 13 -4 5 5 4 11 -4 13 -6 3 -9 10 -5 16 4 6
0 8 -10 4 -9 -3 -19 -2 -22 3 -4 6 3 10 15 10 12 0 31 -15 48 -40 36 -53 40
-52 43 10 1 16 39 23 39 8 0 -4 -4 -8 -9 -8 -5 0 -8 -11 -7 -25 1 -30 16 -34
16 -5 0 24 13 26 34 5 20 -20 25 -19 19 5 -3 11 -1 20 5 20 5 0 12 -9 15 -21
3 -12 10 -18 17 -14 8 5 8 10 0 20 -9 10 -6 15 11 20 27 9 44 -14 23 -29 -11
-9 -8 -11 16 -11 16 0 30 5 30 12 0 6 9 9 20 6 11 -3 20 -11 20 -18 0 -9 11
-13 30 -13 17 1 30 4 30 8 0 3 16 14 35 23 19 9 35 22 35 27 0 6 5 8 11 4 7
-4 1 -15 -16 -29 -24 -18 -26 -24 -16 -41 10 -15 11 -15 7 -2 -3 10 2 21 11
26 18 11 53 4 53 -10 0 -5 7 -2 16 6 8 9 21 16 27 16 7 0 6 -4 -3 -10 -12 -8
-11 -10 6 -10 25 0 49 24 39 39 -3 7 0 8 9 5 9 -3 16 -10 16 -14 0 -5 13 -8
30 -8 16 1 30 5 30 10 0 18 21 7 32 -17 13 -29 28 -33 29 -7 1 11 4 9 9 -8 5
-15 8 -18 9 -9 1 19 31 35 31 17 0 -7 4 -7 13 0 7 6 31 8 54 5 33 -4 40 -9 35
-22 -5 -14 -3 -14 11 -3 9 8 22 10 28 6 9 -5 7 -9 -7 -15 -17 -6 -16 -8 9 -14
34 -9 44 -1 27 20 -7 9 -9 15 -4 14 21 -4 34 2 34 16 0 8 5 15 11 15 5 0 8 -4
4 -9 -3 -5 -1 -12 5 -16 17 -11 11 -28 -7 -20 -15 5 -16 4 -5 -6 9 -10 15 -10
23 -2 6 6 18 9 27 6 9 -4 13 -2 9 4 -4 6 0 14 9 17 11 4 18 -1 21 -14 4 -14
12 -18 27 -16 11 3 23 5 25 5 3 1 -4 7 -15 15 -10 8 -15 18 -11 22 4 5 11 4
15 -1 4 -6 21 -11 37 -12 17 -1 50 -5 75 -9 42 -5 44 -5 25 10 -20 15 -20 15
0 16 11 0 26 -9 33 -20 15 -25 26 -25 61 1 16 12 35 19 43 16 9 -3 7 -7 -7
-13 -36 -14 -46 -30 -29 -44 12 -11 13 -10 8 4 -3 9 -2 16 4 16 6 0 17 3 25 6
8 3 22 -2 31 -12 9 -9 20 -13 24 -9 4 4 -3 15 -15 25 -28 23 -29 30 -3 23 11
-3 20 -10 20 -15 0 -5 8 -8 18 -6 9 1 23 -2 31 -6 11 -7 13 -5 8 9 -7 17 -6
17 18 1 23 -15 25 -15 25 0 0 10 5 14 14 11 8 -3 29 -2 45 3 29 8 31 7 31 -18
0 -25 0 -25 16 -6 12 15 14 15 11 2 -9 -26 2 -28 38 -8 29 16 34 17 39 4 7
-18 40 -11 70 15 18 15 19 15 13 -2 -4 -10 -7 -23 -7 -28 0 -4 -7 -6 -15 -3
-11 5 -15 -1 -15 -17 0 -18 3 -20 9 -10 5 8 16 11 26 7 13 -4 16 -2 11 9 -3 8
-1 15 4 15 6 0 10 9 10 19 0 10 7 22 16 25 12 5 14 1 8 -16 -6 -21 -6 -22 12
-4 13 13 19 15 22 6 3 -7 -2 -16 -9 -21 -12 -7 -12 -9 -1 -9 8 0 21 8 30 18
10 9 14 13 10 8 -5 -6 -8 -17 -8 -25 0 -11 4 -10 20 4 18 17 20 17 14 2 -4
-10 -1 -17 6 -17 10 0 10 -3 0 -15 -9 -10 -9 -15 -1 -15 6 0 11 5 11 10 0 6 8
10 18 11 10 0 12 3 5 6 -19 7 -16 31 6 43 14 7 22 7 26 0 4 -6 11 -7 17 -4 7
5 9 2 5 -8 -3 -10 1 -18 11 -21 9 -3 26 -8 37 -12 18 -7 18 -6 -2 12 -34 30
-28 38 8 12 28 -20 32 -20 40 -6 7 11 18 14 43 10 29 -5 33 -3 32 17 -1 13 5
24 12 26 7 1 8 0 2 -3 -18 -9 -10 -23 13 -23 25 0 34 -29 13 -42 -6 -4 -7 -10
-4 -14 10 -9 60 44 53 56 -6 9 14 14 42 11 6 -1 14 3 18 9 3 5 11 10 16 10 6
0 4 -7 -5 -15 -8 -8 -23 -15 -33 -15 -10 0 -26 -14 -36 -32 -14 -25 -15 -29
-2 -18 8 7 19 10 22 6 4 -4 1 -11 -7 -16 -13 -9 -13 -10 0 -10 8 1 23 7 33 14
16 13 16 14 -4 19 -13 4 -18 10 -14 17 5 7 10 8 14 3 8 -13 69 -14 76 -2 4 5
-6 9 -20 9 -22 0 -24 2 -13 13 24 25 58 27 80 5 11 -11 26 -17 35 -14 10 4 13
2 10 -8 -8 -21 52 -45 64 -25 5 8 4 15 -1 17 -6 2 -10 12 -10 22 0 10 -4 22
-10 25 -5 3 -10 11 -10 16 0 5 11 2 25 -7 19 -13 28 -14 39 -5 11 9 15 9 19
-1 4 -8 6 -7 6 4 1 11 6 15 16 12 8 -4 15 -1 15 5 0 10 -13 15 -31 13 -4 -1
-15 9 -25 21 -10 12 -12 16 -4 10 8 -7 24 -13 37 -13 13 0 23 -4 23 -10 0 -5
5 -10 11 -10 6 0 9 9 6 20 -3 11 -1 22 3 25 5 3 7 -21 5 -52 -2 -32 -1 -48 2
-37 2 12 13 24 24 27 15 4 19 2 15 -9 -4 -9 2 -14 17 -14 18 0 19 2 7 10 -13
8 -12 11 5 24 23 18 51 20 60 6 3 -5 12 -7 20 -3 8 3 15 -1 15 -8 0 -7 -3 -10
-6 -6 -4 3 -13 0 -21 -8 -19 -19 -34 -19 -27 0 4 9 0 15 -10 15 -20 0 -20 -10
-2 -35 12 -16 16 -17 29 -6 9 7 20 10 24 8 5 -3 14 7 21 23 7 15 23 31 35 34
21 6 20 7 -10 22 -32 16 -44 34 -23 34 6 0 10 -4 10 -10 0 -5 9 -10 19 -10 28
0 33 -27 9 -50 -18 -17 -19 -20 -5 -20 24 0 55 49 38 60 -10 6 -10 9 -1 15 7
4 16 2 20 -5 6 -9 11 -6 20 10 11 20 10 22 -3 17 -11 -4 -14 -2 -11 8 6 15 54
16 53 0 -1 -5 -5 -9 -11 -7 -5 1 -7 -2 -4 -7 4 -5 0 -16 -7 -23 -12 -11 -12
-16 2 -28 14 -13 14 -15 -2 -18 -9 -2 -15 -8 -12 -13 4 -5 2 -9 -4 -9 -6 0 -8
-7 -5 -15 4 -8 10 -15 15 -15 4 0 6 7 3 15 -4 9 0 15 8 15 17 0 20 29 5 48 -6
8 -6 12 1 12 6 0 16 -9 22 -20 11 -21 40 -28 40 -10 0 6 -4 10 -10 10 -5 0
-10 7 -10 16 0 10 -6 14 -15 11 -8 -4 -16 -3 -19 1 -6 10 21 32 30 24 4 -4 4
-1 0 5 -5 9 0 13 16 13 13 0 19 -4 13 -8 -11 -8 -16 -52 -6 -52 4 0 11 10 16
22 6 12 16 23 23 24 7 1 8 0 2 -3 -16 -8 -12 -23 8 -24 13 0 14 -2 2 -6 -31
-12 -39 -36 -23 -64 9 -15 22 -25 29 -22 10 4 8 10 -9 24 l-22 19 27 -4 c23
-4 28 0 34 26 5 26 8 29 16 15 5 -9 16 -17 23 -17 8 0 15 -5 15 -10 0 -6 -12
-8 -27 -4 -20 4 -24 3 -14 -4 7 -5 14 -26 15 -46 1 -28 5 -36 19 -36 10 0 15
-4 12 -10 -3 -5 -2 -10 4 -10 5 0 17 -3 27 -7 12 -4 15 -3 10 5 -10 16 5 14
28 -3 10 -8 23 -12 27 -9 5 3 9 1 9 -4 0 -6 -16 -12 -35 -14 -19 -2 -35 0 -35
4 0 4 -5 8 -10 8 -6 0 -5 -8 2 -20 7 -11 19 -18 26 -15 7 3 10 0 7 -5 -3 -6
-2 -10 4 -10 5 0 11 6 14 12 2 7 8 10 12 6 4 -4 0 -19 -9 -33 -16 -24 -16 -25
3 -25 11 0 22 8 24 18 3 9 5 3 6 -15 1 -26 4 -31 19 -26 14 5 13 3 -3 -10 -26
-21 -37 -21 -33 -1 2 11 -5 18 -17 20 -55 9 -68 8 -73 -6 -4 -12 -3 -13 10 -2
20 16 48 5 48 -19 0 -13 -7 -19 -22 -20 -22 0 -22 -1 -3 -8 11 -5 25 -4 33 1
8 7 12 7 12 -1 0 -6 -4 -11 -9 -11 -5 0 -7 -9 -4 -20 4 -15 9 -18 18 -10 6 5
15 7 18 3 10 -10 8 -35 -2 -29 -5 3 -15 -2 -22 -11 -12 -14 -12 -16 2 -11 23
9 41 -11 26 -27 -7 -7 -18 -10 -24 -8 -7 3 -13 0 -13 -6 0 -6 -5 -11 -10 -11
-6 0 -8 11 -4 25 9 36 -4 95 -21 95 -12 0 -12 -5 -1 -33 8 -17 11 -47 9 -64
-6 -38 6 -42 63 -18 20 8 40 13 44 10 5 -3 17 5 27 17 26 33 48 33 51 1 1 -14
-1 -23 -5 -20 -3 4 -13 1 -22 -6 -14 -11 -14 -10 -2 6 21 26 6 32 -19 7 -16
-16 -20 -29 -16 -48 5 -20 4 -23 -4 -12 -8 12 -12 13 -19 2 -4 -8 -11 -13 -15
-13 -3 1 -6 -1 -6 -4 0 -3 0 -12 0 -21 0 -10 5 -14 15 -10 38 15 50 18 36 8
-17 -12 -27 -92 -11 -92 6 0 8 4 5 10 -3 5 -2 10 4 10 18 0 21 -18 5 -34 -18
-18 -30 -20 -39 -6 -8 13 -25 13 -25 -1 0 -5 5 -7 10 -4 6 3 10 2 10 -3 0 -5
10 -20 21 -33 l22 -24 -5 27 c-4 21 -1 26 14 25 20 -1 24 -12 8 -22 -8 -5 -7
-11 1 -21 10 -12 3 -13 -42 -10 -39 3 -48 2 -31 -5 24 -9 28 -46 7 -61 -6 -4
-2 -8 8 -8 9 0 17 6 17 14 0 8 7 21 15 30 15 14 31 10 84 -21 2 -2 2 -6 -2 -9
-3 -3 -21 1 -39 10 -33 16 -33 16 -11 -3 15 -12 20 -25 16 -39 l-5 -22 1111 0
1111 0 0 4950 0 4950 -9075 0 -9075 0 0 -2884z m9790 124 l0 -890 -826 0
c-660 0 -825 3 -817 13 5 6 33 42 62 80 29 37 49 67 44 67 -4 0 -14 -9 -21
-21 -13 -20 -14 -20 -35 -2 l-22 18 19 -22 c19 -23 19 -23 -5 -47 -24 -24 -25
-24 -49 -6 l-25 19 29 30 c17 17 27 31 24 31 -4 0 -68 -67 -143 -149 -88 -97
-142 -148 -151 -144 -19 7 -18 28 3 60 16 25 16 26 -6 44 -30 25 -51 24 -92
-4 -23 -15 -40 -39 -52 -72 -26 -70 -39 -81 -117 -100 -38 -9 -77 -23 -87 -31
-14 -11 -11 -11 19 1 21 8 50 15 65 14 23 0 19 -3 -19 -15 -27 -8 -48 -17 -48
-20 0 -4 8 -3 18 1 9 3 42 11 72 16 73 14 97 31 121 87 22 52 55 92 75 92 10
0 11 -6 4 -26 -16 -41 -12 -72 12 -88 16 -11 18 -16 8 -18 -8 0 -20 -2 -27 -2
-6 -1 -22 -14 -34 -30 l-22 -28 20 -17 c11 -9 37 -29 57 -45 l37 -29 27 26
c14 15 23 29 19 33 -3 3 -16 -5 -29 -20 l-23 -26 -43 41 c-39 37 -42 43 -29
57 14 13 20 11 57 -18 53 -42 66 -32 72 60 6 73 33 126 79 151 11 6 3 -7 -19
-29 -22 -22 -42 -53 -45 -72 -4 -18 -8 -632 -9 -1364 -2 -732 -4 -1244 -5
-1138 l-3 192 -2975 -2 -2975 -3 0 2118 0 2117 3905 0 3905 0 0 -890z m1066
-903 l2749 -2 -2763 -3 c-1625 -1 -2761 2 -2758 7 3 5 -1 11 -9 15 -8 3 -15
11 -15 17 0 7 10 3 23 -9 l23 -22 2750 -3z m3514 -1002 l0 -475 -272 0 c-160
0 -289 -4 -311 -11 -52 -14 -101 -60 -125 -117 -18 -41 -21 -71 -23 -205 -1
-131 -4 -155 -15 -146 -11 9 -15 7 -20 -5 -3 -9 -13 -16 -21 -16 -10 0 -12 -6
-8 -19 3 -11 1 -22 -4 -26 -7 -4 -7 -12 1 -24 9 -15 -11 -43 -143 -193 -97
-112 -158 -174 -167 -171 -9 4 -11 13 -7 27 14 45 11 61 -14 64 -13 2 -34 -2
-47 -9 -21 -11 -55 -74 -58 -109 -1 -9 -6 -22 -11 -29 -5 -10 -4 -12 4 -7 6 4
18 24 27 44 17 43 52 82 71 82 16 0 16 1 2 -39 -9 -27 -8 -35 6 -51 17 -19 17
-20 -7 -29 -13 -5 -30 -17 -38 -27 -14 -18 -14 -18 7 -1 21 19 22 18 57 -9 31
-25 34 -31 21 -43 -12 -12 -17 -12 -32 -1 -11 8 -9 4 4 -10 22 -23 23 -23 43
-5 11 10 20 23 19 29 -4 33 2 37 27 17 25 -19 45 -19 72 2 9 7 12 4 12 -11 0
-11 -14 -31 -30 -44 -81 -62 -79 -59 -89 -141 -13 -111 -47 -152 -135 -169
-37 -6 -36 -7 14 -4 50 3 58 7 92 45 36 42 58 105 58 171 0 22 10 35 50 64 60
43 75 70 61 109 -12 30 -19 32 -56 15 -18 -8 -29 -8 -36 -1 -8 8 30 60 125
175 74 91 142 171 151 178 13 11 15 -80 15 -883 l0 -895 -167 -4 c-93 -1
-1334 -3 -2760 -3 l-2592 0 -7 1693 -7 1692 3132 0 3131 0 0 -475z m-294 -565
c12 -19 31 -45 43 -57 20 -23 21 -23 355 -23 184 0 342 3 351 6 9 4 27 28 41
55 29 58 42 63 163 57 99 -5 146 -26 180 -82 20 -32 21 -47 21 -454 0 -265 -4
-423 -10 -427 -5 -3 -28 -36 -50 -74 -45 -75 -52 -128 -24 -187 24 -50 41 -60
37 -21 -2 19 6 52 21 82 l24 50 1 -232 1 -233 -477 0 c-263 0 -603 -3 -755 -7
l-278 -6 0 732 c0 796 -3 757 57 813 42 41 69 47 178 45 l99 -2 22 -35z m-92
-2806 c9 -8 16 -24 16 -34 0 -35 -28 -50 -94 -50 -68 0 -86 10 -86 50 0 14 5
31 12 38 18 18 133 15 152 -4z m-2824 -714 c0 -15 24 -17 255 -23 140 -4 384
-4 542 -1 249 6 290 9 304 23 15 16 148 17 1695 19 l1680 2 -6 -47 c-5 -47 -5
-48 -50 -55 -25 -5 -459 -6 -965 -4 -506 3 -1808 5 -2892 6 -1192 1 -1973 5
-1973 10 0 5 -6 7 -12 5 -35 -12 -103 -13 -110 -2 -5 9 -12 9 -25 1 -10 -6
-40 -9 -68 -7 -27 2 -72 5 -100 5 -27 1 -53 6 -56 11 -3 4 -13 1 -22 -7 -10
-11 -18 -12 -22 -6 -5 8 -11 8 -19 1 -7 -6 -15 -8 -19 -5 -3 3 -41 6 -84 6
-79 1 -133 13 -133 29 0 5 -4 9 -10 9 -5 0 -7 -7 -3 -16 4 -12 0 -14 -22 -8
-21 5 -26 4 -20 -6 6 -9 2 -9 -16 1 -13 7 -27 12 -31 11 -5 -1 -8 4 -9 10 0 7
-5 2 -11 -12 -6 -15 -12 -20 -15 -13 -3 8 -14 11 -29 7 -17 -4 -24 -2 -22 6 2
7 -3 15 -11 18 -9 3 -12 0 -9 -10 5 -12 -2 -14 -35 -11 -69 5 -72 6 -79 17 -5
8 -11 7 -19 -1 -10 -10 -17 -9 -31 4 -17 15 -18 15 -18 0 0 -18 -25 -23 -35
-7 -10 16 -38 12 -32 -4 4 -9 -5 -7 -27 7 -19 12 -32 25 -29 30 6 10 -5 9 -28
-4 -12 -6 -28 -7 -37 -3 -9 5 -48 9 -87 9 -370 7 -73 11 1165 15 800 3 1483 6
1518 6 52 1 62 -1 62 -16z"/>
<path d="M2620 7940 c-6 -12 -10 -33 -9 -48 2 -16 -8 -44 -25 -69 -23 -34 -27
-49 -22 -76 7 -37 30 -63 61 -69 14 -2 21 -12 23 -33 2 -29 2 -29 -13 -11 -15
19 -15 19 -15 -1 0 -12 5 -25 10 -28 18 -11 41 17 38 45 -1 16 7 38 21 56 21
27 22 27 7 2 -15 -26 -15 -28 6 -43 58 -40 138 8 138 84 0 58 -15 89 -53 107
-32 15 -37 15 -70 -1 -39 -18 -55 -43 -32 -51 8 -4 15 -13 15 -22 0 -13 -4
-11 -16 6 -8 12 -22 22 -31 22 -17 0 -15 21 8 78 21 50 -17 97 -41 52z"/>
<path d="M8850 7805 l0 -125 295 0 295 0 0 125 0 125 -295 0 -295 0 0 -125z
m580 0 l0 -115 -285 0 -285 0 0 115 0 115 285 0 285 0 0 -115z"/>
<path d="M3177 5032 c-10 -10 -17 -28 -17 -40 0 -29 35 -30 50 -1 9 16 14 18
26 8 12 -10 7 -20 -31 -64 -25 -29 -45 -63 -45 -75 0 -20 4 -21 68 -18 61 3
67 5 70 26 3 19 -1 22 -27 22 -17 0 -31 3 -31 6 0 4 14 22 30 41 17 18 30 43
30 53 0 52 -88 81 -123 42z"/>
<path d="M3359 5021 c-23 -24 -29 -38 -29 -73 1 -100 106 -144 176 -74 72 72
24 176 -81 176 -27 0 -44 -8 -66 -29z"/>
<path d="M3586 5028 c-9 -12 -16 -30 -16 -40 0 -25 42 -23 58 2 12 19 32 19
32 0 0 -4 -20 -32 -45 -61 -65 -77 -62 -89 25 -89 68 0 70 1 70 25 0 21 -5 25
-31 25 l-31 0 31 35 c54 62 33 125 -42 125 -26 0 -40 -6 -51 -22z"/>
<path d="M3766 5028 c-24 -34 -20 -58 9 -58 15 0 25 6 25 14 0 20 19 31 32 18
8 -8 -2 -28 -35 -68 -26 -31 -47 -65 -47 -75 0 -17 8 -19 70 -19 68 0 70 1 70
25 0 21 -5 25 -31 25 l-31 0 31 39 c35 44 39 80 13 104 -28 25 -87 22 -106 -5z"/>
<path d="M4334 5042 c-17 -11 -36 -51 -29 -62 11 -18 42 -11 58 13 14 20 16
20 22 5 5 -12 -7 -34 -40 -73 -63 -73 -57 -87 32 -83 62 3 68 5 71 26 3 19 -1
22 -27 22 -17 0 -31 3 -31 6 0 4 14 22 30 41 35 39 38 65 10 93 -20 20 -74 27
-96 12z"/>
<path d="M4511 4993 c-37 -68 -40 -115 -9 -137 51 -36 118 -5 118 54 0 29 -29
70 -51 70 -6 0 -1 16 11 35 l22 35 -30 0 c-27 0 -34 -7 -61 -57z"/>
<path d="M4814 5025 c-23 -34 -6 -71 40 -90 19 -8 37 -19 40 -24 11 -17 -15
-23 -45 -10 -25 10 -33 10 -45 -3 -14 -14 -13 -18 12 -37 37 -29 88 -28 119 4
14 13 25 33 25 44 0 22 -41 58 -77 67 -12 4 -23 10 -23 14 0 17 19 20 39 8 17
-11 23 -10 38 5 17 17 17 19 -1 33 -11 8 -39 14 -63 14 -35 0 -46 -5 -59 -25z"/>
<path d="M5005 4995 c-34 -33 -34 -92 -1 -128 22 -24 30 -26 93 -24 l68 2 0
85 c0 80 -2 85 -23 88 -13 2 -22 -2 -22 -9 0 -10 -3 -10 -12 -1 -21 21 -77 14
-103 -13z"/>
<path d="M8567 5653 c-4 -3 -7 -19 -7 -36 0 -16 -9 -40 -20 -54 -11 -14 -20
-34 -20 -45 0 -27 18 -58 34 -58 17 0 41 -28 32 -37 -4 -4 -12 -1 -17 7 -8 12
-9 11 -7 -5 5 -29 33 -25 35 5 0 14 1 29 2 34 1 6 7 3 14 -6 21 -27 52 -30 80
-7 22 16 27 29 27 64 0 48 -24 75 -66 75 -26 0 -62 -36 -42 -43 7 -2 11 -7 8
-10 -3 -3 -14 1 -24 9 -18 12 -18 17 -6 53 15 46 1 79 -23 54z"/>
<path d="M15008 4006 c-43 -63 -78 -117 -78 -120 0 -3 36 -6 80 -6 l79 0 3
-57 3 -57 58 91 c57 90 64 108 49 115 -11 4 -82 123 -82 137 0 6 -8 11 -17 11
-12 0 -47 -42 -95 -114z"/>
<path d="M14844 3573 c21 -88 155 -213 227 -213 l40 0 -25 33 c-37 48 -57 103
-58 158 l-1 49 -95 0 -94 0 6 -27z"/>
</g>
</svg>
